<svg xmlns="http://www.w3.org/2000/svg" viewBox="0 0 430 430">
  <defs>
    <style>
      .cls-1 {
        isolation: isolate;
      }

      .cls-2, .cls-3, .cls-4, .cls-5 {
        fill: #f9c9c0;
      }

      .cls-3, .cls-4, .cls-5 {
        mix-blend-mode: multiply;
      }

      .cls-3 {
        opacity: 0.9;
      }

      .cls-4 {
        opacity: 0.3;
      }

      .cls-5 {
        opacity: 0.2;
      }

      .cls-6 {
        fill: #92140c;
      }
    </style>
  </defs>
  <g class="cls-1">
    <g id="Warstwa_1" data-name="Warstwa 1">
      <g>
        <path class="cls-2" d="M358.19,265.7V181.91L310.6,194.6,290.22,200,228.3,216.55l-12.65,3.37.06,65.86L215.8,397a3,3,0,0,0,.84-.13l74.23-23,6.83-2.11,58.39-18.09a3,3,0,0,0,2.11-2.86Z"/>
        <path class="cls-2" d="M215.8,397a2.55,2.55,0,0,1-.72-.1H215L139.84,374.2,133,372.13,74.84,354.59l-.22-.08-.23-.1a4.36,4.36,0,0,1-.41-.24,2.88,2.88,0,0,1-.27-.22l-.11-.1-.14-.15-.14-.18h0a.21.21,0,0,1-.06-.08h0a1.14,1.14,0,0,1-.18-.3s0-.06,0-.09a.88.88,0,0,1-.1-.22l0-.07s0,0,0-.06,0,0,0-.06,0,0,0,0a0,0,0,0,1,0,0h0a.06.06,0,0,1,0,0,1.09,1.09,0,0,1,0-.17.68.68,0,0,1,0-.14s0,0,0-.07a1.72,1.72,0,0,1,0-.39L72.31,265l-.39-82.17v-.08L120,195.17l20.37,5.27,75.27,19.47h0l.06,65.86Z"/>
        <path class="cls-3" d="M215.8,397a2.55,2.55,0,0,1-.72-.1H215L139.84,374.2,133,372.13,74.84,354.59l-.22-.08-.23-.1a4.36,4.36,0,0,1-.41-.24,2.88,2.88,0,0,1-.27-.22l-.11-.1-.14-.15-.14-.18h0a.14.14,0,0,1,0-.08h0a1.14,1.14,0,0,1-.18-.3s0-.06,0-.09a.88.88,0,0,1-.1-.22l0-.07s0,0,0-.06,0,0,0-.06,0,0,0,0a0,0,0,0,1,0,0h0v-.05a1.09,1.09,0,0,1,0-.17.68.68,0,0,1,0-.14s0,0,0-.07a1.72,1.72,0,0,1,0-.39L72.31,265l-.39-82.17v-.08L120,195.17l20.37,5.27,75.27,19.47h0l.06,65.86Z"/>
        <path class="cls-2" d="M380.56,134.31l-.42,39.57a1.06,1.06,0,0,1,0,.25,3,3,0,0,1-2.2,2.62L358.19,182,215.65,219.92h0L71.92,182.8,52.1,177.68a3,3,0,0,1-2.25-2.87l-.4-40.5a3,3,0,0,1,.86-2L215,174.81h0L379.7,132.29a2.94,2.94,0,0,1,.82,1.69A1.86,1.86,0,0,1,380.56,134.31Z"/>
        <path class="cls-2" d="M379.68,132.28a2.91,2.91,0,0,0-1.33-.79l-162.63-42a3.17,3.17,0,0,0-1.5,0l-162.57,42a3,3,0,0,0-1.35.81l164.64,42.47h0l164.72-42.52Z"/>
        <path class="cls-4" d="M379.68,132.28,215,174.81h0L50.3,132.34a3,3,0,0,0-.86,2l.41,40.5a3,3,0,0,0,2.25,2.87l19.82,5.12h0l143.7,37.11h0l12.64-3.36L358.15,182h0l19.71-5.24a3,3,0,0,0,2.22-2.62c0-.08,0-.17,0-.25l.4-39.9a3,3,0,0,0-.83-1.69Z"/>
        <path class="cls-5" d="M215.65,219.91h0L71.92,182.8,52.1,177.68a3,3,0,0,1-2.25-2.87l-.4-40.5a3,3,0,0,1,.86-2L215,174.81Z"/>
        <path class="cls-6" d="M326.06,63.12c-.14-15.15-12.74-27.67-30-29.78-22.38-2.75-52.41,11.8-72.57,58.17q-3.48,8-6.53,17.19a191.88,191.88,0,0,0-7-18.1c-20.44-45.77-50.67-60.06-73.19-57.24-17.65,2.21-30.06,14.47-30.15,29.82-.1,14.39,11,30.95,38.92,44.07C160.15,114.1,179.35,120,204,124.19l-81.44,26.59a1.31,1.31,0,0,0-.27.12,3.45,3.45,0,0,0-2.13,3.2L120,195.17v1.24a3.48,3.48,0,0,0,2.52,3.36l10.84,3.11L133,372.13l6.84,2.07a3.21,3.21,0,0,0,.16-1l.38-172.72v-.24a3.51,3.51,0,0,0-2.55-3.38L127,193.77l.1-37.12,7.69-2.51h0l80-26.14.21.09a3.85,3.85,0,0,0,.88.11l.27,0L295.57,154h0l5.24,1.71,2.89.94-.09,35.85-11,3.5a3.52,3.52,0,0,0-2.43,3.35v.73l.48,172.76a3.16,3.16,0,0,0,.17,1l6.83-2.11-.47-169.86,10.93-3.5a3.49,3.49,0,0,0,2.44-3.32v-.47l.12-40.48a3.49,3.49,0,0,0-2.41-3.34l-.12,0h0l-80.46-26.18c24.74-4.09,44.07-10,58.78-16.79C314.94,94.56,326.18,77.73,326.06,63.12ZM156.58,104.4c-31-12.3-43-28.3-42.94-41.17.07-11.74,9.94-21.16,24-22.92a36.89,36.89,0,0,1,4.74-.3c19.25,0,43.39,14.11,60.75,52.36a196.39,196.39,0,0,1,9.58,26.12C189.47,115.05,171,110.13,156.58,104.4Zm118.81.51c-14,5.51-31.84,10.24-54.1,13.58a202.49,202.49,0,0,1,9.05-25.22C247.54,54.34,271.58,40,290.71,40a36.77,36.77,0,0,1,4.51.28C309.15,42,319,51.41,319.06,63.18c.1,13.06-12.13,29.34-43.66,41.73Z"/>
      </g>
    </g>
  </g>
</svg>
